# xmcd
#
# Track frame offsets:
#	150
#	14626
#	27566
#	42254
#	54587
#	66781
#	81319
#	96902
#	109729
#	122057
#	134949
#	149553
#	163036
#
# Disc length: 2337 seconds
#
# Revision: 0
# Processed by: cddbd v1.5.2PL0 Copyright (c) Steve Scherf et al.
# Submitted via: dBpowerAMP V4.0
#
DISCID=c7091f0d
DTITLE=John England and the Western Swingers - Open That Gate
DYEAR=2008
DGENRE=Country
TTITLE0=Open That Gate
TTITLE1=I'll Keep On Loving You
TTITLE2=Bring It On Down
TTITLE3=Old Town
TTITLE4=Neely's Bend Quick Step
TTITLE5=One More Time
TTITLE6=Right There With Me
TTITLE7=Waltz For Sue Ann
TTITLE8=Big Boy Strut
TTITLE9=Brownsville
TTITLE10=The Closer I Get
TTITLE11=She's Comin' Home With Me
TTITLE12=Yes, Sir
EXTD=
EXTT0=
EXTT1=
EXTT2=
EXTT3=
EXTT4=
EXTT5=
EXTT6=
EXTT7=
EXTT8=
EXTT9=
EXTT10=
EXTT11=
EXTT12=
PLAYORDER=
